<?xml version="1.0" encoding="utf-8"?>
<!-- Generator: Adobe Illustrator 25.2.3, SVG Export Plug-In . SVG Version: 6.00 Build 0)  -->
<svg version="1.1" id="Layer_1" xmlns="http://www.w3.org/2000/svg" xmlns:xlink="http://www.w3.org/1999/xlink" x="0px" y="0px"
	 viewBox="0 0 841.9 595.3" style="enable-background:new 0 0 841.9 595.3;" xml:space="preserve">
<style type="text/css">
	.st0{fill:#3C3C3B;stroke:#FFFFFF;stroke-width:0.5;stroke-miterlimit:10;}
	.st1{fill:#B2191D;stroke:#FFFFFF;stroke-width:0.5;stroke-miterlimit:10;}
</style>
<g>
	<g>
		<path class="st0" d="M335.5,424c0-25,0.2-67.4,0.4-92.5h-1.6c-2.5,46.1-7.2,125.4-7.6,138H303c-1-26.4-5.4-103-7.9-139h-1.7
			c0.2,22.2,1,59.7,1,92v47h-30v-188h44.4c1.4,17.6,4.5,60.3,5.6,83h1.2c1.9-26.6,2.7-44.5,5.6-83h46.3v188h-32L335.5,424L335.5,424
			z"/>
		<path class="st0" d="M455.5,330.7v89.7c0,38.1-15.3,51.9-39.2,51.9c-23.1,0-36.8-15-36.8-51.9v-91.9c0-34.7,15.7-49.6,37.6-49.6
			C439,278.8,455.5,294,455.5,330.7z M412.5,324.8v101.4c0,7.1,1.5,11.4,5,11.4c3.1,0,5-3.7,5-11.4V324.5c0-8.5-1.5-11.1-5.2-11.1
			C414.2,313.4,412.5,316.3,412.5,324.8z"/>
		<path class="st0" d="M543.5,330.7v89.7c0,38.1-15.3,51.9-39.2,51.9c-23.1,0-36.8-15-36.8-51.9v-91.9c0-34.7,15.7-49.6,37.6-49.6
			C527,278.8,543.5,294,543.5,330.7z M500.5,324.8v101.4c0,7.1,1.5,11.4,5,11.4c3.1,0,5-3.7,5-11.4V324.5c0-8.5-1.5-11.1-5.2-11.1
			C502.2,313.4,500.5,316.3,500.5,324.8z"/>
		<path class="st0" d="M555.5,281.5h35.9c27.1,0,40.1,14.4,40.1,58.2v69.2c0,39.2-7.4,60.7-35.3,60.7h-40.7L555.5,281.5L555.5,281.5
			z M588.5,436.5h2.9c5.2,0,7.1-4,7.1-12.4v-96.4c0-9.9-2.7-12.2-7.3-12.2h-2.7L588.5,436.5L588.5,436.5z"/>
	</g>
</g>
<g>
	<g>
		<path class="st1" d="M199.5,117.5h27.4c20.6,0,30.6,15.7,30.6,63.4v75.4c0,42.8-5.7,66.2-27,66.2h-31L199.5,117.5L199.5,117.5z
			 M224.5,285.5h2.3c4.2,0,5.7-4.3,5.7-13.6V166.8c0-10.8-2.2-13.3-5.8-13.3h-2.2V285.5z"/>
		<path class="st1" d="M291.5,117.5v205h-25v-205H291.5z"/>
		<path class="st1" d="M324.5,255.5v16.6c0,12.3,1.1,15.4,3.5,15.4c2.2,0,3-4.3,3-12c0-15.4-0.9-20-10.5-37.6
			c-12.7-23.4-18.7-35.5-18.7-65.4c0-33,6.3-58.3,26.5-58.3c22.3,0,26.2,26.8,26.2,54.6v12.6h-22v-15.7c0-10.5-0.9-13.3-3.3-13.3
			c-1.9,0-3,3.1-3,12.3c0,10.8,0.9,15.1,8.9,29c14.4,25,21.2,37.9,21.2,70.6c0,37.6-5.9,61.4-28.2,61.4c-20,0-27.6-21.3-27.6-58
			v-12.3L324.5,255.5L324.5,255.5z"/>
		<path class="st1" d="M420.5,246.5v16.2c0,31.5-3.5,62.4-29.2,62.4c-14,0-27.8-9.5-27.8-58.2v-95.2c0-43.5,12.3-56.6,28.4-56.6
			c25.6,0,28.6,33.4,28.6,56.3v19h-25v-24.2c0-8.3-0.3-13.2-3.4-13.2c-2.9,0-3.6,4-3.6,13.2v106.8c0,10.1,0.7,13.8,3.3,13.8
			c2.9,0,3.7-3.7,3.7-14.7v-25.7L420.5,246.5L420.5,246.5z"/>
		<path class="st1" d="M485.5,170.7V269c0,41.7-11.7,56.9-29.9,56.9c-17.6,0-28.1-16.4-28.1-56.9V168.3c0-38,12-54.4,28.7-54.4
			C472.9,113.8,485.5,130.5,485.5,170.7z M452.5,165.2v109.4c0,7.7,1.2,12.3,4,12.3c2.5,0,4-4,4-12.3V164.9c0-9.2-1.2-12-4.2-12
			C453.8,152.9,452.5,155.9,452.5,165.2z"/>
		<path class="st1" d="M519.5,117.5v158c0,7.4,0.9,11.4,3.3,11.4c2.9,0,3.7-3.7,3.7-11.4v-158h25v151.8c0,43.3-10.4,55.3-29.6,55.3
			c-20,0-28.4-16-28.4-56.2V117.5H519.5z"/>
		<path class="st1" d="M561.5,322.5v-205H588c2.6,22.5,10.5,103.4,11.2,112h1.1c-1.8-32.4-3.8-85.5-3.8-104.6v-7.4h23v205H591
			c-1.2-17.6-8.6-112.2-9-119h-1.2c0.8,22.8,2.8,90.3,2.8,114.1v4.9L561.5,322.5L561.5,322.5z"/>
		<path class="st1" d="M638.5,157.5h-12v-40h50v40h-13v164h-25L638.5,157.5L638.5,157.5z"/>
	</g>
</g>
</svg>
